<svg xmlns="http://www.w3.org/2000/svg"  viewBox="0 0 100 100" width="100px" height="100px" baseProfile="basic"><path d="M90.346,59.344c0.012-0.032,0.032-0.058,0.041-0.092c3.062-11.755,1.824-21.326-3.68-28.448	c-6.47-8.372-18.603-12.796-35.086-12.796c-19.021,0-24.228-4.644-24.271-4.683c-0.246-0.239-0.6-0.336-0.932-0.255	c-0.334,0.081-0.604,0.328-0.713,0.653c-0.141,0.418-2.502,7.611-1.433,15.033c-1.822,0.895-15.83,8.604-7.733,30.121	C13.275,60.382,11,63.677,11,67.5c0,5.238,4.262,9.5,9.469,9.5l0.491,0.015c0.774,0,1.547-0.097,2.306-0.288	C29.304,86.786,40.62,93,53,93s23.696-6.215,29.734-16.273c0.759,0.19,1.537,0.287,2.332,0.287c0.001,0,0.003,0,0.004,0L85.5,77	c5.238,0,9.5-4.262,9.5-9.5C95,64.033,93.127,61.003,90.346,59.344z" opacity=".35"/><circle cx="82.444" cy="64.278" r="8.722" fill="#cf9f88"/><circle cx="18.146" cy="64.604" r="8.979" fill="#cf9f88"/><path fill="#cf9f88" d="M79,60.667c0,3.613,2.291,7.101,1.083,10.292C75.939,81.909,62.403,89.667,50,89.667	c-11.446,0-23.742-6.703-28.458-16.333C19.659,69.488,21,65.237,21,60.667c0-16.016,12.984-29,29-29S79,44.65,79,60.667z"/><path fill="#545454" d="M31.75,34.792c-0.042,0.167-11.875,21.167-11.875,21.167h-5.333c0,0-2.25-5.25-2.25-13	S18.5,25.208,26.583,26L31.75,34.792z"/><path fill="#545454" d="M86.419,56c6.914-26.544-9.243-39.992-37.799-39.992c-19.865,0-24.968-4.966-24.968-4.966	S13.581,40.839,43.378,40.839c14.899,0,26.487-3.311,26.487-3.311L79.798,56H86.419z"/><circle cx="35.021" cy="61.021" r="5" fill="#545454"/><circle cx="65" cy="61.021" r="5" fill="#545454"/><linearGradient id="Lecl3X5bwpHib63h8zfvwa" x1="41.553" x2="55.053" y1="14.791" y2="89.791" gradientUnits="userSpaceOnUse"><stop offset=".004" stop-color="#ffe8c7"/><stop offset=".278" stop-color="#ffe7c4"/><stop offset=".451" stop-color="#fde2bc"/><stop offset=".596" stop-color="#fbdbad"/><stop offset=".725" stop-color="#f7d198"/><stop offset=".844" stop-color="#f3c37e"/><stop offset=".954" stop-color="#eeb35d"/><stop offset="1" stop-color="#ebab4d"/></linearGradient><path fill="url(#Lecl3X5bwpHib63h8zfvwa)" d="M87.346,56.344c0.012-0.032,0.032-0.058,0.041-0.092c3.062-11.755,1.824-21.326-3.68-28.448	c-6.47-8.372-18.603-12.796-35.086-12.796c-19.021,0-24.228-4.644-24.271-4.683c-0.246-0.239-0.6-0.336-0.932-0.255	c-0.334,0.081-0.604,0.328-0.713,0.653c-0.141,0.418-2.502,7.611-1.433,15.033c-1.822,0.895-15.83,8.604-7.733,30.121	C10.275,57.382,8,60.677,8,64.5c0,5.238,4.262,9.5,9.469,9.5l0.491,0.015c0.774,0,1.547-0.097,2.306-0.288	C26.304,83.786,37.62,90,50,90s23.696-6.215,29.734-16.273c0.759,0.19,1.537,0.287,2.332,0.287c0.001,0,0.003,0,0.004,0L82.5,74	c5.238,0,9.5-4.262,9.5-9.5C92,61.033,90.127,58.003,87.346,56.344z M24.228,12.662c2.542,1.505,9.337,4.346,24.393,4.346	c15.841,0,27.427,4.156,33.504,12.02C87.115,35.484,88.297,44.22,85.641,55h-5.246l-9.649-17.945	c-0.225-0.418-0.714-0.618-1.168-0.484c-0.115,0.035-11.648,3.44-26.213,3.44c-8.141,0-13.922-2.298-17.182-6.831	C21.286,26.373,23.298,16.234,24.228,12.662z M21.655,27.798c0.537,2.28,1.448,4.524,2.898,6.542c1.106,1.539,2.46,2.844,4.05,3.922	l-9.012,16.739H17.5V55c-0.013,0-0.026,0.002-0.039,0.002h-2.11C8.394,36.3,18.939,29.254,21.655,27.798z M15.006,55.332v0.011	c-0.031,0.008-0.062,0.015-0.093,0.024L15.006,55.332z M82.469,72l-0.429,0.014c-0.824,0-1.648-0.14-2.449-0.415	c-0.455-0.156-0.958,0.033-1.195,0.453C72.821,81.889,61.94,88,50,88s-22.821-6.111-28.396-15.948	c-0.237-0.419-0.742-0.609-1.195-0.453c-0.801,0.275-1.625,0.415-2.418,0.416L17.5,72c-4.136,0-7.5-3.364-7.5-7.5	c0-4.123,3.344-7.477,7.461-7.498h2.727c0.368,0,0.706-0.202,0.88-0.526l9.255-17.19c3.444,1.806,7.798,2.724,13.041,2.724	c12.674,0,23.116-2.534,25.998-3.305l9.554,17.768C79.091,56.798,79.429,57,79.797,57H82.5c4.136,0,7.5,3.364,7.5,7.5	S86.636,72,82.469,72z M35.021,55.021c-3.309,0-6,2.691-6,6s2.691,6,6,6s6-2.691,6-6S38.33,55.021,35.021,55.021z M35.021,65.021	c-2.206,0-4-1.794-4-4s1.794-4,4-4s4,1.794,4,4S37.227,65.021,35.021,65.021z M65,55.021c-3.309,0-6,2.691-6,6s2.691,6,6,6	s6-2.691,6-6S68.309,55.021,65,55.021z M65,65.021c-2.206,0-4-1.794-4-4s1.794-4,4-4s4,1.794,4,4S67.206,65.021,65,65.021z M20.509,65.737c-0.55,0.766-1.442,1.269-2.456,1.269c-1.672,0-3.028-1.356-3.028-3.028c0-1.537,1.149-2.792,2.633-2.988	c-0.127,0.369-0.21,0.759-0.21,1.171C17.447,63.972,18.776,65.461,20.509,65.737z M85.009,63.973c0,1.684-1.365,3.049-3.049,3.049	c-1.021,0-1.92-0.507-2.473-1.278c1.745-0.278,3.083-1.777,3.083-3.6c0-0.415-0.084-0.807-0.212-1.179	C83.852,61.162,85.009,62.426,85.009,63.973z M57.913,71.764c-1.348,3.194-4.454,5.257-7.913,5.257s-6.565-2.063-7.913-5.257	c-0.215-0.509,0.024-1.095,0.533-1.31c0.51-0.216,1.096,0.024,1.31,0.533c1.034,2.451,3.417,4.035,6.07,4.035	s5.036-1.583,6.07-4.035c0.214-0.508,0.801-0.749,1.31-0.533C57.889,70.668,58.127,71.255,57.913,71.764z"/></svg>